<?xml version="1.0" encoding="UTF-8"?>
<svg id="Layer_1" data-name="Layer 1" xmlns="http://www.w3.org/2000/svg" xmlns:xlink="http://www.w3.org/1999/xlink" viewBox="0 0 337.2 337.2">
  <defs>
    <style>
      .cls-1, .cls-2, .cls-3 {
        fill: none;
      }

      .cls-2 {
        stroke-width: 12px;
      }

      .cls-2, .cls-3 {
        stroke: #000;
        stroke-linecap: round;
        stroke-linejoin: round;
      }

      .cls-3 {
        stroke-width: 8px;
      }

      .cls-4 {
        clip-path: url(#clippath);
      }
    </style>
    <clipPath id="clippath">
      <rect class="cls-1" x="120.8" y="44.5" width="97.79" height="254.98"/>
    </clipPath>
  </defs>
  <g>
    <polygon class="cls-2" points="218.59 299.47 218.59 44.5 120.8 44.5 120.8 297.61 218.59 299.47"/>
    <line class="cls-2" x1="27.99" y1="177" x2="92.38" y2="177"/>
    <polyline class="cls-2" points="65.62 150.24 92.38 177 65.62 203.76"/>
    <g>
      <line class="cls-2" x1="309.21" y1="177" x2="244.82" y2="177"/>
      <polyline class="cls-2" points="271.58 203.76 244.82 177 271.58 150.24"/>
    </g>
  </g>
  <g class="cls-4">
    <g>
      <line class="cls-3" x1="51.3" y1="120.2" x2="274.3" y2="-102.81"/>
      <line class="cls-3" x1="51.3" y1="147.51" x2="274.3" y2="-75.49"/>
      <line class="cls-3" x1="51.3" y1="174.83" x2="274.3" y2="-48.17"/>
      <line class="cls-3" x1="51.3" y1="202.15" x2="274.3" y2="-20.86"/>
      <line class="cls-3" x1="51.3" y1="229.47" x2="274.3" y2="6.46"/>
      <line class="cls-3" x1="51.3" y1="256.79" x2="274.3" y2="33.78"/>
      <line class="cls-3" x1="51.3" y1="284.1" x2="274.3" y2="61.1"/>
      <line class="cls-3" x1="51.3" y1="311.42" x2="274.3" y2="88.41"/>
      <line class="cls-3" x1="51.3" y1="338.74" x2="274.3" y2="115.73"/>
      <line class="cls-3" x1="51.3" y1="366.06" x2="274.3" y2="143.05"/>
      <line class="cls-3" x1="51.3" y1="393.37" x2="274.3" y2="170.37"/>
      <line class="cls-3" x1="51.3" y1="420.69" x2="274.3" y2="197.69"/>
      <line class="cls-3" x1="51.3" y1="448.01" x2="274.3" y2="225"/>
      <line class="cls-3" x1="51.3" y1="475.33" x2="274.3" y2="252.32"/>
    </g>
  </g>
</svg>