<?xml version="1.0" encoding="UTF-8"?>
<svg id="uuid-138648d1-2cc7-4532-9f50-1b405c768a37" data-name="Layer 1" xmlns="http://www.w3.org/2000/svg" viewBox="0 0 337.2 337.2">
  <rect width="337.2" height="337.2" fill="none"/>
  <path d="M262.99,113.73c-4.87,4.87-12.76,4.87-17.63,0l-12.35-12.35c-4.87-4.87-4.87-12.76,0-17.63l30.85-30.85c-5.99-2.37-12.51-3.68-19.35-3.68-29.12,0-52.73,23.61-52.73,52.73,0,2.58.19,5.11.55,7.58L63.13,238.74c-12.39,12.39-12.39,32.48,0,44.87,12.39,12.39,32.48,12.39,44.87,0l129.41-129.41c2.32.31,4.69.49,7.1.49,29.12,0,52.73-23.61,52.73-52.73,0-6.68-1.26-13.07-3.52-18.95l-30.73,30.73Z" fill="none" stroke="#636363" stroke-linecap="round" stroke-linejoin="round" stroke-width="9.79"/>
  <circle cx="85.93" cy="260.8" r="13.95" transform="translate(-152.81 125.14) rotate(-42.16)" fill="none" stroke="#636363" stroke-linecap="round" stroke-linejoin="round" stroke-width="8"/>
  <line x1="107.99" y1="239.91" x2="207.44" y2="141.15" fill="none" stroke="#636363" stroke-linecap="round" stroke-linejoin="round" stroke-width="8"/>
  <path d="M108.84,164.66l-55.08-55.08c-12.68-12.68-12.68-33.23,0-45.91h0c12.68-12.68,33.23-12.68,45.91,0l55.08,55.08" fill="none" stroke="#636363" stroke-linecap="round" stroke-linejoin="round" stroke-width="9.79"/>
  <line x1="141.56" y1="130.92" x2="84.32" y2="73.68" fill="none" stroke="#636363" stroke-linecap="round" stroke-linejoin="round" stroke-width="8"/>
  <line x1="121.74" y1="150.74" x2="64.51" y2="93.5" fill="none" stroke="#636363" stroke-linecap="round" stroke-linejoin="round" stroke-width="8"/>
  <polyline points="217.05 202.41 247.39 232.75 228.1 252.04 197.76 221.7" fill="none" stroke="#636363" stroke-linecap="round" stroke-linejoin="round" stroke-width="9.79"/>
  <polygon points="217.12 263.02 266.99 295.75 291.1 271.64 258.36 221.77 217.12 263.02" fill="none" stroke="#636363" stroke-linecap="round" stroke-linejoin="round" stroke-width="9.79"/>
  <line x1="279.39" y1="283.35" x2="238.09" y2="242.04" fill="none" stroke="#636363" stroke-linecap="round" stroke-linejoin="round" stroke-width="9.79"/>
</svg>