<?xml version="1.0" encoding="UTF-8"?>
<svg id="Layer_1" data-name="Layer 1" xmlns="http://www.w3.org/2000/svg" viewBox="0 0 337.2 337.2">
  <defs>
    <style>
      .cls-1 {
        stroke-width: 12px;
      }

      .cls-1, .cls-2, .cls-3 {
        fill: none;
        stroke: #000;
        stroke-linecap: round;
        stroke-linejoin: round;
      }

      .cls-2 {
        stroke-width: 8px;
      }

      .cls-3 {
        stroke-width: 9.79px;
      }
    </style>
  </defs>
  <path class="cls-1" d="M262.99,113.73c-4.87,4.87-12.76,4.87-17.63,0l-12.35-12.35c-4.87-4.87-4.87-12.76,0-17.63l30.85-30.85c-5.99-2.37-12.51-3.68-19.35-3.68-29.12,0-52.73,23.61-52.73,52.73,0,2.58.19,5.11.55,7.58L63.13,238.74c-12.39,12.39-12.39,32.48,0,44.87,12.39,12.39,32.48,12.39,44.87,0l129.41-129.41c2.32.31,4.69.49,7.1.49,29.12,0,52.73-23.61,52.73-52.73,0-6.68-1.26-13.07-3.52-18.95l-30.73,30.73Z"/>
  <circle class="cls-2" cx="85.93" cy="260.8" r="13.95" transform="translate(-152.81 125.14) rotate(-42.16)"/>
  <line class="cls-2" x1="107.99" y1="239.91" x2="207.44" y2="141.15"/>
  <path class="cls-3" d="M108.84,164.66l-55.08-55.08c-12.68-12.68-12.68-33.23,0-45.91h0c12.68-12.68,33.23-12.68,45.91,0l55.08,55.08"/>
  <line class="cls-2" x1="141.56" y1="130.92" x2="84.32" y2="73.68"/>
  <line class="cls-2" x1="121.74" y1="150.74" x2="64.51" y2="93.5"/>
  <polyline class="cls-3" points="217.05 202.41 247.39 232.75 228.1 252.04 197.76 221.7"/>
  <polygon class="cls-3" points="217.12 263.02 266.99 295.75 291.1 271.64 258.36 221.77 217.12 263.02"/>
  <line class="cls-3" x1="279.39" y1="283.35" x2="238.09" y2="242.04"/>
</svg>