<?xml version="1.0" encoding="UTF-8"?>
<svg id="Layer_1" data-name="Layer 1" xmlns="http://www.w3.org/2000/svg" viewBox="0 0 24 24">
  <defs>
    <style>
      .cls-1 {
        fill: currentColor;
      }
    </style>
  </defs>
  <path class="cls-1" d="M18.87,3.37L3.91-.03s-.1,0-.14,0c-.03,0-.05,0-.08,0-.07.01-.14.04-.21.08,0,0,0,0,0,0L.28,2.15s-.01.01-.02.02c0,0-.01,0-.02.01-.02.01-.03.04-.04.05-.03.04-.07.07-.09.12-.01.03-.02.05-.03.08-.02.05-.03.09-.03.14,0,.02-.01.03-.01.05v13.25c0,.26.18.49.44.55l14.96,3.4s.08.01.12.01c.13,0,.25-.04.35-.12.13-.11.21-.27.21-.44V6.3l2.08-1.65v12.52c0,.31.25.56.56.56s.56-.25.56-.56V3.92c0-.26-.18-.49-.44-.55ZM4.89,1.34l2.33.53-1.33.99-.1.08-.29-.51-.61-1.08ZM6.92,3.49l1.47-1.09,1.11,1.68-2.57-.59ZM14.98,18.57L1.15,15.42V3.32l6.49,1.48,7.35,1.67v12.1ZM11.96,4.63l1.32-1.1,1.06,1.64-2.37-.54ZM10.85,4.1l-1.09-1.65,2.41.55-1.32,1.1ZM3.59,1.31l.91,1.62-2.51-.57,1.6-1.05ZM15.68,5.2l-1.06-1.65,2.44.56-1.38,1.09Z"/>
  <polygon class="cls-1" points="20.37 11.06 23.97 14.6 23.97 7.29 20.37 11.06"/>
</svg>