<?xml version="1.0" encoding="UTF-8"?>
<svg id="Layer_1" xmlns="http://www.w3.org/2000/svg" version="1.1" viewBox="0 0 164.6 69.2">
  <path class="st__" fill="currentColor" d="M130.1,0c-17.8,0-32.4,13.4-34.4,30.7h2.7c1.7-7.3,8.2-12.7,15.9-12.7s16.3,7.3,16.3,16.3-7.3,16.3-16.3,16.3-14.3-5.5-15.9-12.8h-2.7c1.7,17.5,16.4,31.3,34.4,31.3s34.6-15.5,34.6-34.6S149.2,0,130.1,0ZM158.5,47.2v3h-8.8l-9.6-16.7v11.6c0,4.4-2.1,5-5.5,5h-3v-31.4h0s8.5,0,8.5,0l10,17.2v-13c0-4,3-4.3,3.9-4.3h4.6v28.3ZM114.8,37.9h-8.2c1.3,2.9,4.3,5,7.7,5s8.5-3.8,8.5-8.5-3.8-8.5-8.5-8.5-6.3,2-7.7,4.8h8.1c4.5,0,4.5,7.2,0,7.2h0ZM25.6,18.9h-8.5v8.5h8.5v-8.5ZM66.8,27.4h5.9l-3-8.5h-8.4l-3,8.5h8.5ZM33.8,18.9h-4.7v11.9H8.5v-11.9H3c-1.7,0-3,1.4-3,3.1v28.4h8.5v-12.4h20.6v12.2h0c0,.1,20.6.1,20.6.1v-8.5h-12.2v-3.8h12.2v-7.2h-12.2v-3.4h12.2v-8.5h-15.9ZM50.5,50.3h8.5l2.8-8.5h-8.5l-2.8,8.5ZM69.2,41.8l2.8,8.5h8.5l-2.8-8.5h-8.5ZM17.1,50.3h8.5v-8.5h-8.5v8.5ZM89.7,37.9v-10.5h6.5v-8.5h-20.5v8.5h5.5v14.5c0,5.9,3.6,8.4,9.5,8.4h3.6v-8.5h-1.6c-2.8,0-3-1.2-3-3.9h0ZM73.4,30.8h-16.1l-2.5,7.2h21.1l-2.5-7.2Z"/>
</svg>