<?xml version="1.0" encoding="UTF-8"?>
<svg id="Layer_1" data-name="Layer 1" xmlns="http://www.w3.org/2000/svg" viewBox="0 0 24 24">
  <defs>
    <style>
      .cls-1 {
        fill: currentColor;
      }
    </style>
  </defs>
  <path class="cls-1" d="M18.87,3.37L3.91-.03c-.3-.06-.6.12-.67.42-.07.3.12.6.42.67l.77.18,13.75,3.13v12.8c0,.31.25.56.56.56s.56-.25.56-.56V3.92c0-.26-.18-.49-.44-.55Z"/>
  <path class="cls-1" d="M15.67,5.48L6.33,3.35.71,2.08c-.17-.04-.34,0-.47.11-.13.11-.21.27-.21.44v13.25c0,.26.18.49.44.55l14.96,3.4s.08.01.12.01c.13,0,.25-.04.35-.12.13-.11.21-.27.21-.44V6.03c0-.26-.18-.49-.44-.55ZM14.98,12.98v5.59L1.15,15.42V3.32l6.49,1.48,7.35,1.67v6.51Z"/>
  <polygon class="cls-1" points="5.94 24 13.26 24 9.48 20.4 5.94 24"/>
</svg>