<?xml version="1.0" encoding="UTF-8"?>
<svg id="Layer_1" xmlns="http://www.w3.org/2000/svg" version="1.1" viewBox="0 0 296.2 337.2">
  <!-- Generator: Adobe Illustrator 29.0.0, SVG Export Plug-In . SVG Version: 2.1.0 Build 186)  -->
  <defs>
    <style>
      .st0 {
        fill: none;
        stroke: #000;
        stroke-linecap: round;
        stroke-linejoin: round;
        stroke-width: 6.2px;
      }
    </style>
  </defs>
  <g id="keeqtr">
    <g>
      <path class="st0" d="M196.8,313.5c1.2-32.9-1.4-65.6.8-98.4,6-.3,11.6-.5,17.2-.8,0,0,0-.1,0-.2,29.3,1.7,48.5-.6,77.9,1,1,33.2.4,66.4.1,99.6"/>
      <path class="st0" d="M269,213.5c-.7-34,1.4-29.5-.8-63.2-12.4,0-24-.7-36.7-.6-1.9,34.2-.1,29.5-.7,63.8"/>
      <path class="st0" d="M153.8,229.2c.1-4.6.9-9.2-.4-14-49.9-1.1-99.9-1.1-149.8,0-.8,33.2-.4,66.3,0,99.5"/>
      <path class="st0" d="M164.5,33.6c-12.1-61.6-102.2-17.8-63.5,24.7h5"/>
      <path class="st0" d="M256.9,151v62.5"/>
      <path class="st0" d="M65.4,11.4c-28.4-6.4-60.1,32.9-31.8,52.8"/>
      <path class="st0" d="M108.2,141.3c-9.5,2.2-20.4-1.3-30.1.7-1.4,4-1,32.3,0,34.9-1.6,8.6-.7,16.3-.9,24.8"/>
      <path class="st0" d="M255.4,139.8c1.2-17.5-26.3-30.6-31.7-12.1-6.5,23-39.2,16.3-41.9-5.8.4-1.2.9-2.5,1.4-3.9"/>
      <path class="st0" d="M255.7,136.6c13.1-.3,11.7-20.9.7-25.5,5-12-6.1-25.6-18.6-22.4-14,1.1-23.8-15.5-38.2-2.6-10.3,6.9-10,29,4.6,29.3"/>
      <path class="st0" d="M195.6,230c-59.1.9-118.4-.6-177.7.3"/>
      <path class="st0" d="M62.9,201.7c-.2-5.7-.4-11.5-.5-17.6h-24c-.6,6.5-.8,12.6.2,19.2-1.6,2.9-.7,6.6-.9,10.1"/>
      <path class="st0" d="M40.7,62.8c-2.3.3-4.5.5-6.6.8-16.4,19.2,5,49.5,27.9,33,.2-.9.5-2.2.9-3.5"/>
      <path class="st0" d="M207.2,63c-.6-9.2-3.9-19.3-14.4-20.6-9.3-7.1-13.9-14.8-27.6-10.3"/>
      <path class="st0" d="M101.3,58.9c-26,31.4,10.8,74.9,45.9,53.8"/>
      <path class="st0" d="M181.6,51c-12.4-16-36.5,4-24.4,18.8"/>
      <path class="st0" d="M230.7,88.1c7.6-16.7-7.4-29.9-23.8-24.7-1,1.4-2.7,2.6-2.1,4.7"/>
      <path class="st0" d="M62.2,97.2c5.6,13.4,23.6,16.5,34.7,5.3"/>
      <path class="st0" d="M107.1,142.3c2.2,23.7,0,47.5.9,71.2"/>
      <path class="st0" d="M39.1,202.9c22.6-.1,45.2-.3,67.8.3"/>
      <path class="st0" d="M78.8,177.6h27.7"/>
      <path class="st0" d="M141.9,93.3c-3.1,8,6.3,12.5,5.6,19.2,5.5,15.2,21.6,17.9,33.8,9.6"/>
      <path class="st0" d="M3.2,315.3v18.5l289.8.3v-18.8"/>
    </g>
  </g>
  <line class="st0" x1="183.8" y1="256.7" x2="17.9" y2="256.7"/>
  <line class="st0" x1="183.8" y1="273.8" x2="17.9" y2="273.8"/>
  <line class="st0" x1="183.8" y1="290.9" x2="17.9" y2="290.9"/>
  <line class="st0" x1="209.1" y1="290.9" x2="278.7" y2="290.9"/>
  <line class="st0" x1="209.1" y1="273.8" x2="278.7" y2="273.8"/>
  <line class="st0" x1="209.1" y1="256.7" x2="278.7" y2="256.7"/>
</svg>