<?xml version="1.0" encoding="UTF-8"?>
<svg id="Layer_1" xmlns="http://www.w3.org/2000/svg" version="1.1" viewBox="0 0 296.2 337.2">
  <!-- Generator: Adobe Illustrator 29.0.0, SVG Export Plug-In . SVG Version: 2.1.0 Build 186)  -->
  <defs>
    <style>
      .st0 {
        stroke-width: 6.2px;
      }

      .st0, .st1 {
        fill: none;
        stroke: #000;
        stroke-linecap: round;
        stroke-linejoin: round;
      }

      .st1 {
        stroke-width: 5.9px;
      }
    </style>
  </defs>
  <g>
    <g id="keeqtr">
      <g>
        <path class="st0" d="M164.5,43.6c-12.1-61.6-102.2-17.8-63.5,24.7h5"/>
        <path class="st0" d="M65.4,21.4c-28.4-6.4-60.1,32.9-31.8,52.8"/>
        <path class="st0" d="M255.4,149.8c1.2-17.5-26.3-30.6-31.7-12.1-6.5,23-39.2,16.3-41.9-5.8.4-1.2.9-2.5,1.4-3.9"/>
        <path class="st0" d="M255.7,146.6c13.1-.3,11.7-20.9.7-25.5,5-12-6.1-25.6-18.6-22.4-14,1.1-23.8-15.5-38.2-2.6-10.3,6.9-10,29,4.6,29.3"/>
        <path class="st0" d="M40.7,72.8c-2.3.3-4.5.5-6.6.8-16.4,19.2,5,49.5,27.9,33,.2-.9.5-2.2.9-3.5"/>
        <path class="st0" d="M207.2,73c-.6-9.2-3.9-19.3-14.4-20.6-9.3-7.1-13.9-14.8-27.6-10.3"/>
        <path class="st0" d="M101.3,68.9c-26,31.4,10.8,74.9,45.9,53.8"/>
        <path class="st0" d="M181.6,61c-12.4-16-36.5,4-24.4,18.8"/>
        <path class="st0" d="M230.7,98.1c7.6-16.7-7.4-29.9-23.8-24.7-1,1.4-2.7,2.6-2.1,4.7"/>
        <path class="st0" d="M62.2,107.2c5.6,13.4,23.6,16.5,34.7,5.3"/>
        <path class="st0" d="M141.9,103.3c-3.1,8,6.3,12.5,5.6,19.2,5.5,15.2,21.6,17.9,33.8,9.6"/>
        <polyline class="st0" points="293 334.1 3.2 333.8 3.2 231.1 192.5 231.1"/>
      </g>
    </g>
    <line class="st0" x1="169.8" y1="256.7" x2="24.9" y2="256.7"/>
    <line class="st0" x1="169.8" y1="273.8" x2="24.9" y2="273.8"/>
    <line class="st0" x1="169.8" y1="290.9" x2="24.9" y2="290.9"/>
    <line class="st1" x1="210.7" y1="290.9" x2="273.1" y2="290.9"/>
    <line class="st1" x1="210.7" y1="273.8" x2="273.1" y2="273.8"/>
    <line class="st1" x1="210.7" y1="256.7" x2="273.1" y2="256.7"/>
    <line class="st1" x1="210.7" y1="239.7" x2="273.1" y2="239.7"/>
  </g>
  <polyline class="st0" points="192.5 312.8 192.5 210.4 293 210.4 293 334.1"/>
  <rect class="st1" x="235" y="164.2" width="38" height="46.2"/>
  <rect class="st0" x="24.9" y="187.3" width="144.8" height="43.8"/>
</svg>