<?xml version="1.0" encoding="UTF-8"?>
<svg id="Layer_1" xmlns="http://www.w3.org/2000/svg" version="1.1" viewBox="0 0 69 69.2">
  <!-- Generator: Adobe Illustrator 29.0.0, SVG Export Plug-In . SVG Version: 2.1.0 Build 186)  -->
  <defs>
    <style>
      .st0 {
        fill: #44403c;
      }

      .st1 {
        fill: #f5f5f4;
      }
    </style>
  </defs>
  <circle class="st1" cx="34.5" cy="34.5" r="33.1"/>
  <path class="st0" d="M34.4,0C16.6,0,2,13.4,0,30.7h2.7c1.7-7.3,8.2-12.7,15.9-12.7s16.3,7.3,16.3,16.3-7.3,16.3-16.3,16.3-14.3-5.5-15.9-12.8H0c1.7,17.5,16.5,31.3,34.4,31.3s34.6-15.5,34.6-34.6S53.5,0,34.4,0ZM62.8,47.2v3h-8.8l-9.6-16.7v11.7c0,4.4-2.1,5-5.5,5h-3v-31.4h0s8.5,0,8.5,0l10,17.3v-13c0-4,3-4.3,3.9-4.3h4.6v28.3ZM19.1,37.9h-8.2c1.3,2.9,4.3,5,7.7,5s8.5-3.8,8.5-8.5-3.8-8.5-8.5-8.5-6.3,2-7.7,4.8h8.1c4.5,0,4.5,7.2,0,7.2h0Z"/>
  <rect class="st1" y="30.7" width="3" height="7.2"/>
</svg>