<svg viewBox="0 0 69 71" fill="currentColor" xmlns="http://www.w3.org/2000/svg">
<g clip-path="url(#clip0_602_1257)">
<path fill-rule="evenodd" clip-rule="evenodd" d="M34.42 0.169998C16.64 0.169998 1.99 13.6 0.06 30.87H2.71C4.37 23.61 10.87 18.19 18.64 18.19C27.67 18.19 34.98 25.51 34.98 34.53C34.98 43.55 27.66 50.87 18.64 50.87C10.83 50.87 4.3 45.39 2.69 38.07H0C1.67 55.61 16.45 69.33 34.42 69.33C53.52 69.33 69 53.84 69 34.75C69 15.66 53.52 0.169998 34.42 0.169998ZM62.82 47.4V50.45H62.48H53.98L44.35 33.78V45.43C44.35 49.83 42.28 50.45 38.89 50.45H35.86V19.07V19.06H44.36L54.33 36.31V23.32C54.33 19.29 57.36 19.06 58.26 19.06H62.82V47.4ZM19.11 38.08H10.91C12.25 41.01 15.21 43.04 18.64 43.04C23.33 43.04 27.14 39.24 27.14 34.54C27.14 29.84 23.33 26.04 18.64 26.04C15.26 26.04 12.34 28.01 10.97 30.87H19.11C23.59 30.87 23.6 38.07 19.11 38.07V38.08Z"/>
</g>
<defs>
<clipPath id="clip0_602_1257">
<rect width="69" height="70" transform="translate(0 0.169998)"/>
</clipPath>
</defs>
</svg>
